# xmcd
#
# Track frame offsets:
#	150
#	10057
#	23600
#	33710
#	41450
#	50062
#	62492
#	80145
#	91160
#	104022
#	116905
#	129410
#	137825
#	148720
#	165395
#	178677
#	189412
#	201307
#
# Disc length: 2853
#
# Revision: 1
# Processed by: cddbd v1.5.1PL0 Copyright (c) Steve Scherf et al.
# Submitted via: ExactAudioCopy v0.90a11
# Normalized: r0:DSETVAR1
#
DISCID=fd0b2312
DTITLE=Various Artist - Great American Train Songs - Volume 2
DYEAR=1900
DGENRE=
TTITLE0=Johnny Cash - Rock Island Line
TTITLE1=Patty Paige - Throw Mama From The Train
TTITLE2=Johnny Cash - Hey Porter
TTITLE3=Jerry Lee Lewis - Waiting For A Train
TTITLE4=Johnny Cash - The Wreck Of The Old 97
TTITLE5=Roy Acuff - Wabash Cannonball
TTITLE6=Steve Goodman - City Of New Orleans
TTITLE7=Johnny Cash - Train Of Love
TTITLE8=Smiley Burnette - Lazy Locomotive
TTITLE9=Hylo Brown - John Henry
TTITLE10=Johnny McCollum - Santa Fe All The Way
TTITLE11=Sleepy LaBeef - Mystery Train
TTITLE12=Jim Glaser - Midnight Special
TTITLE13=Johnny McCollum - Chattanooga Choo Choo
TTITLE14=Roy Acuff - Boxcar Willie
TTITLE15=Bob Newman - Chick-A-Choo
TTITLE16=Reno and Smiley - East Bound Freight Train
TTITLE17=Al Dexter - Blow That Lonesome Whistle, Casey
EXTD=
EXTT0=
EXTT1=
EXTT2=
EXTT3=
EXTT4=
EXTT5=
EXTT6=
EXTT7=
EXTT8=
EXTT9=
EXTT10=
EXTT11=
EXTT12=
EXTT13=
EXTT14=
EXTT15=
EXTT16=
EXTT17=
PLAYORDER=
